<?xml version="1.0" encoding="utf-8"?>
<!-- Generator: Adobe Illustrator 23.0.0, SVG Export Plug-In . SVG Version: 6.00 Build 0)  -->
<svg version="1.0" xmlns="http://www.w3.org/2000/svg" xmlns:xlink="http://www.w3.org/1999/xlink" x="0px" y="0px"
	 viewBox="0 0 314 90" style="enable-background:new 0 0 314 90;" xml:space="preserve">
<style type="text/css">
	.st0{display:none;}
	.st1{display:inline;fill:#040000;}
	.st2{fill:#EB6619;}
	.st3{fill:#CF5716;}
	.st4{fill:#FFFFFF;}
	.st5{fill:#E6E6E5;}
	.st6{fill:#C9C9C9;}
</style>
<g id="图层_2" class="st0">
	<rect x="-11.3" y="-20.7" class="st1" width="350.6" height="140.9"/>
</g>
<g id="图层_1">
	<polygon class="st2" points="39.9,0 0,22.5 0,22.5 0,33.7 0,33.8 0,45 0,45 0,56.2 0,56.3 0,67.5 0,67.5 39.9,90 79.8,67.5 
		79.8,67.5 79.8,56.3 79.8,56.2 79.8,45 79.8,45 79.8,33.8 79.8,33.7 79.8,22.5 79.8,22.5 	"/>
	<polygon class="st3" points="39.9,0 0,22.5 0,22.5 0,33.7 0,33.8 0,45 0,45 0,56.2 0,56.3 0,67.5 0,67.5 39.9,45 	"/>
	<polygon class="st4" points="20,33.7 20,33.8 20,33.7 	"/>
	<polygon class="st4" points="10,39.4 10,39.4 10,39.4 	"/>
	<polygon class="st4" points="10,28.1 10,28.1 10,28.1 	"/>
	<polygon class="st4" points="69.9,50.6 69.9,50.6 69.9,50.6 	"/>
	<polygon class="st4" points="69.9,28.1 69.9,28.1 69.9,28.1 	"/>
	<polygon class="st4" points="69.9,39.4 69.9,39.4 69.9,39.4 	"/>
	<polygon class="st4" points="69.9,61.9 69.9,61.9 69.9,61.9 	"/>
	<polygon class="st4" points="69.9,28.1 59.9,22.5 39.9,11.3 20,22.5 10,28.1 10,28.1 10,39.4 10,39.4 10,39.4 10,61.9 20,67.5 
		20,33.8 20,33.7 20,33.7 39.9,22.5 59.9,33.7 69.9,39.4 69.9,39.4 69.9,28.1 	"/>
	<polygon class="st4" points="69.9,50.6 59.9,56.3 49.9,50.6 39.9,45 39.9,33.8 49.9,39.4 	"/>
	<polygon class="st5" points="69.9,50.6 59.9,56.3 39.9,67.5 20,56.3 20,56.3 10,61.9 10,61.9 20,67.5 39.9,78.7 63.1,65.7 
		69.9,61.9 69.9,61.9 69.9,50.6 	"/>
	<g>
		<path class="st6" d="M97.1,24.3c0,7.1-0.2,12-0.4,18.5c-0.3,6.7-0.8,13.3-1.4,19.8l-0.2,1.8h15.4v-1.7c0-5.5,0.1-11.7,0.3-18.5
			c0.2-6.1,0.4-10.8,0.8-17.4l0.2-4.2H97.1V24.3z"/>
		<polygon class="st6" points="97.3,18.6 111.9,18.6 112.4,5.1 97.8,5.1 		"/>
		<path class="st6" d="M151.1,40.8h9.3c0,1.7-0.1,3.4-0.2,5.1c-0.1,1.5-0.2,3-0.4,4.5c-0.8,0.2-1.6,0.4-2.4,0.5
			c-1.2,0.2-2.6,0.2-4,0.2c-6.2,0-10.8-1.3-13.9-4c-3-2.6-4.5-6.5-4.5-11.9c0-5.8,1.6-10.3,4.6-13.2c3.1-3,7.7-4.5,13.7-4.5
			c2.8,0,5.8,0.3,8.8,0.8c3,0.5,6,1.3,8.9,2.3l2.2,0.8l-0.4-14l-1.3-0.2c-4.7-0.7-8.4-1.2-11.1-1.5c-2.7-0.3-5.2-0.4-7.3-0.4
			c-10.2,0-18.3,2.7-24,8.1c-5.8,5.4-8.7,13-8.7,22.7c0,8.8,2.6,15.8,7.8,20.8c5.2,5,12.4,7.5,21.6,7.5c3.5,0,7.3-0.2,11-0.6
			c3.8-0.4,7.6-1,11.4-1.9l1.2-0.3l0-1.3c0.2-5.6,0.4-11,0.8-15.9c0.3-4.9,0.8-9.6,1.3-14l0.2-1.8h-24.1L151.1,40.8z"/>
		<path class="st6" d="M231.7,5.3l-0.4,1.1c-0.8,2.4-1.4,4.2-1.9,5.5c-0.6,1.6-0.9,2.3-1.1,2.7l-15.7,33.2L202.1,13
			c-0.6-1.8-1-3.2-1.2-4.1c-0.2-0.9-0.4-1.6-0.5-2.2l-0.2-1.4H184l16.3,51.8c0.1,0.2,0.2,0.5,0.3,1c0.6,1.9,1,3.5,1.2,4.7l0.2,1.4
			h18.1l0.4-1.1c0.5-1.6,1-2.9,1.5-4.1c0.4-1.1,0.8-2,1-2.5l25-51.3H231.7z"/>
		<polygon class="st6" points="242.9,64.6 247.7,64.6 248,59.5 243.2,59.5 		"/>
		<path class="st6" d="M259.9,46.2c-2.9,0-5.1,0.9-6.7,2.6c-1.6,1.7-2.4,4.1-2.4,7.1c0,2.8,0.7,5,2.2,6.5s3.6,2.3,6.3,2.3
			c0.7,0,1.4-0.1,2.2-0.2c0.8-0.1,1.6-0.3,2.6-0.6l0.7-4.2c-1,0.3-1.9,0.5-2.6,0.7c-0.7,0.1-1.3,0.2-1.8,0.2c-1.6,0-2.8-0.4-3.6-1.2
			c-0.8-0.8-1.2-2-1.2-3.6c0-1.8,0.4-3.2,1.3-4.2c0.9-1,2.2-1.4,3.9-1.4c0.5,0,1.1,0.1,1.7,0.2c0.6,0.1,1.4,0.3,2.4,0.6v-4.1
			c-0.9-0.2-1.7-0.4-2.5-0.5C261.4,46.2,260.6,46.2,259.9,46.2z"/>
		<path class="st6" d="M276.7,46.1c-2.9,0-5.3,0.9-6.9,2.6s-2.5,4.1-2.5,7.1c0,2.8,0.8,5,2.3,6.5c1.5,1.5,3.7,2.3,6.5,2.3
			c3,0,5.3-0.9,7-2.6c1.7-1.7,2.5-4.1,2.5-7.2c0-2.8-0.8-5-2.3-6.5C281.7,46.9,279.5,46.1,276.7,46.1z M279.5,59.4
			c-0.7,1-1.9,1.4-3.4,1.4c-1.4,0-2.4-0.4-3.1-1.3c-0.7-0.9-1.1-2.1-1.1-3.8c0-1.9,0.4-3.4,1.1-4.3c0.8-1,1.9-1.5,3.4-1.5
			c1.4,0,2.4,0.4,3.1,1.3c0.7,0.8,1,2.1,1,3.8C280.6,57,280.3,58.4,279.5,59.4z"/>
		<path class="st6" d="M312.6,48c-0.9-0.9-2.4-1.4-4.4-1.4c-0.9,0-1.8,0.2-2.5,0.5c-0.7,0.3-1.5,0.8-2.2,1.6
			c-0.7-0.7-1.4-1.2-2.2-1.6c-0.7-0.3-1.6-0.5-2.5-0.5c-1.2,0-2.2,0.2-3,0.6s-1.6,1.1-2.2,2v-2.1h-4.5c0,3.1-0.1,6.1-0.2,9.1
			c-0.1,2.9-0.4,5.7-0.6,8.5h4.8v-1.8c0-4.8,0.3-8,0.9-9.8s1.6-2.7,3.1-2.7c0.8,0,1.4,0.3,1.8,0.8c0.3,0.5,0.5,1.4,0.5,2.8
			c0,1-0.1,2.5-0.2,4.4c-0.1,1.9-0.3,4.1-0.5,6.3h4.7v-1.4c0-5,0.3-8.4,0.9-10.2c0.6-1.8,1.6-2.7,3.1-2.7c0.7,0,1.3,0.2,1.7,0.7
			c0.4,0.5,0.5,1.2,0.5,2.1c0,1.4,0,3.1-0.1,5.1c-0.1,2-0.2,4.1-0.4,6.4h4.8v-2c0-1.7,0-3.7,0.1-5.9c0.1-2.2,0.1-3.6,0.1-4.1
			C314,50.5,313.6,49,312.6,48z"/>
	</g>
	<g>
		<path class="st6" d="M107.9,84.3c-1,0.2-1.9,0.4-2.9,0.5c-1,0.1-1.9,0.2-2.8,0.2c-2.3,0-4.1-0.6-5.3-1.8c-1.3-1.2-1.9-2.9-1.9-5.1
			c0-2.4,0.7-4.3,2.1-5.6s3.4-2,5.9-2c0.5,0,1.1,0,1.8,0.1s1.6,0.2,2.9,0.4l0.1,2.7c-0.8-0.3-1.6-0.5-2.4-0.6
			c-0.8-0.1-1.6-0.2-2.4-0.2c-1.7,0-3,0.4-3.8,1.3c-0.9,0.9-1.3,2.1-1.3,3.7c0,1.5,0.4,2.6,1.3,3.4s2.2,1.1,3.9,1.1
			c0.4,0,0.8,0,1.1-0.1c0.3,0,0.7-0.1,0.9-0.2c0.1-0.5,0.1-1,0.1-1.5c0-0.5,0-0.9,0-1.4v-0.4h-2.4l0.1-2.3h5.4
			c-0.1,1.1-0.3,2.4-0.3,3.7C108,81.5,107.9,82.8,107.9,84.3z"/>
		<path class="st6" d="M116.1,84.7l5.7-12.2c0.1-0.2,0.2-0.4,0.3-0.7s0.2-0.6,0.3-1h4.2c0.1,0.5,0.2,0.9,0.4,1.3s0.2,0.7,0.4,1.1
			l4.2,11.5h-3.4c-0.1-0.5-0.2-0.9-0.2-1.1c-0.1-0.2-0.1-0.4-0.1-0.5l-1.4-3.9h-4.8l-1.5,3.4c-0.1,0.3-0.3,0.6-0.4,0.9
			s-0.2,0.7-0.4,1.2H116.1z M124.3,72.7l-1.9,4.3h3.3L124.3,72.7z"/>
		<path class="st6" d="M150.2,83c-0.1,0.3-0.2,0.6-0.3,0.9c-0.1,0.3-0.2,0.5-0.2,0.8H146c-0.1-0.4-0.1-0.6-0.1-0.9
			c0-0.2-0.1-0.4-0.1-0.6L143.4,73l-0.7,7.9c0,0.4-0.1,0.9-0.1,1.6s-0.1,1.3-0.1,2.2h-2.9c0.3-1.6,0.5-3.6,0.7-6
			c0.2-2.3,0.4-5,0.5-7.9h4.8c0.1,0.3,0.1,0.6,0.2,0.9c0.1,0.3,0.1,0.5,0.1,0.5l2.2,9.6l3.1-9.2l0-0.1c0.2-0.7,0.4-1.3,0.5-1.7h4.6
			c0,0.7-0.1,1.6-0.1,2.5c0,0.2,0,0.3,0,0.4l-0.3,7.9c0,0.1,0,0.2,0,0.4s0,0.3,0,0.5c0,0.3,0,0.6,0,1s0,0.8,0,1.2H153
			c0-0.4,0.1-0.8,0.1-1.1s0.1-0.8,0.1-1.2l0.2-5.7v-1.2c0-0.5,0-1,0-1.3c0-0.3,0-0.6,0-0.8L150.2,83z"/>
		<path class="st6" d="M166.1,84.7c0.2-1.8,0.3-3.8,0.5-6.2c0.1-2.3,0.2-4.9,0.2-7.7h10.3l-0.1,2.5c-0.5,0-1,0-1.5-0.1
			c-0.4,0-0.8,0-1,0h-4.7c0,0.2-0.1,0.3-0.1,0.6s-0.1,0.6-0.1,1l-0.1,1.4h4.2c0.6,0,1.1,0,1.5,0c0.3,0,0.6,0,0.9-0.1l-0.1,2.6
			c-0.2,0-0.5,0-0.8,0c-0.3,0-0.7,0-1.2,0h-1h-3.6l-0.1,1.5c0,0.4,0,0.8-0.1,1s0,0.5,0,0.7l0,0.3c0.4,0,0.8,0,1.1,0
			c0.3,0,0.6,0,0.9,0c1,0,2,0,2.9-0.1c0.9,0,1.7-0.1,2.4-0.2l-0.1,2.7H166.1z"/>
		<path class="st6" d="M186.1,84.7c0.2-1.7,0.3-3.8,0.5-6.2s0.2-4.9,0.2-7.7h6.2c0.7,0,1.3,0,1.7,0.1c0.4,0.1,0.7,0.1,0.9,0.3
			c0.6,0.3,1,0.7,1.3,1.3c0.3,0.6,0.5,1.3,0.5,2.1c0,0.9-0.3,1.7-0.9,2.4c-0.6,0.7-1.4,1.2-2.5,1.6c0.5,1.1,1,2.2,1.4,3.2
			s0.9,2,1.4,2.9h-3.3l-3.4-8c0.2,0,0.4,0,0.6,0.1c0.2,0,0.4,0,0.6,0c1,0,1.8-0.2,2.3-0.5c0.5-0.4,0.8-0.9,0.8-1.6
			c0-0.6-0.2-1-0.6-1.3c-0.4-0.2-1.1-0.4-2.2-0.4c-0.3,0-0.6,0-0.9,0c-0.3,0-0.6,0-0.9,0c-0.1,0.3-0.1,0.7-0.2,1
			c0,0.3-0.1,0.7-0.1,1l-0.2,5.4c0,0.1,0,0.7-0.1,1.7s0,1.8-0.1,2.6H186.1z"/>
		<path class="st6" d="M234.1,70.8L228.2,83c-0.1,0.2-0.2,0.4-0.3,0.7c-0.1,0.3-0.2,0.6-0.4,1h-3.9c0-0.3-0.2-0.8-0.3-1.3
			c0-0.1-0.1-0.2-0.1-0.2l-3.9-12.4h3.1c0,0.2,0.1,0.4,0.1,0.6s0.2,0.6,0.3,1l2.9,9.7l4.4-9.3c0.1-0.1,0.2-0.4,0.3-0.7
			c0.1-0.3,0.3-0.8,0.5-1.4H234.1z"/>
		<path class="st6" d="M239.2,84.7l5.7-12.2c0.1-0.2,0.2-0.4,0.3-0.7s0.2-0.6,0.3-1h4.2c0.1,0.5,0.2,0.9,0.4,1.3s0.2,0.7,0.4,1.1
			l4.2,11.5h-3.4c-0.1-0.5-0.2-0.9-0.2-1.1c-0.1-0.2-0.1-0.4-0.1-0.5l-1.4-3.9h-4.8l-1.5,3.4c-0.1,0.3-0.3,0.6-0.4,0.9
			s-0.2,0.7-0.4,1.2H239.2z M247.4,72.7l-1.9,4.3h3.3L247.4,72.7z"/>
		<path class="st6" d="M262.9,84.7c0.2-1.8,0.3-3.8,0.5-6.2c0.1-2.3,0.2-4.9,0.2-7.7h3.2c-0.1,0.6-0.2,1.5-0.3,2.6l0,0.1l-0.3,6.1
			l0,0.1c0,0.5,0,0.9,0,1.2c0,0.2,0,0.5,0,0.8c0,0.3,0,0.5,0,0.6c0.1,0,0.3,0,0.7,0c0.3,0,0.6,0,0.8,0c0.9,0,1.7,0,2.5-0.1
			c0.7-0.1,1.4-0.1,2.1-0.2l-0.2,2.7H262.9z"/>
		<path class="st6" d="M284.3,70.8c-0.1,0.6-0.1,1.4-0.2,2.4c0,0.1,0,0.2,0,0.2l-0.3,5.3v0.9c0,1,0.2,1.8,0.7,2.2
			c0.5,0.4,1.2,0.7,2.3,0.7c1.2,0,2-0.3,2.5-0.8c0.5-0.6,0.8-1.6,0.8-3.2l0.1-4.5c0-0.1,0-0.3,0-0.5c0-0.2,0-0.5,0-0.9
			c0-0.5,0-0.8,0-1.1c0-0.3,0-0.5,0-0.8h3.2c-0.1,0.5-0.1,1-0.2,1.5c0,0.5-0.1,1-0.1,1.4l-0.3,4.8c0,0.2,0,0.5,0,1
			c0,1.4-0.2,2.3-0.4,2.8c-0.4,0.9-1.1,1.5-2.1,2c-1,0.5-2.3,0.7-3.9,0.7c-1.9,0-3.3-0.4-4.3-1.2c-1-0.8-1.5-1.9-1.5-3.4
			c0-0.3,0.1-1.4,0.2-3.6c0.1-2.1,0.2-4.1,0.2-6H284.3z"/>
		<path class="st6" d="M303,84.7c0.2-1.8,0.3-3.8,0.5-6.2c0.1-2.3,0.2-4.9,0.2-7.7H314l-0.1,2.5c-0.5,0-1,0-1.5-0.1
			c-0.4,0-0.8,0-1,0h-4.7c0,0.2-0.1,0.3-0.1,0.6s-0.1,0.6-0.1,1l-0.1,1.4h4.2c0.6,0,1.1,0,1.5,0c0.3,0,0.6,0,0.9-0.1l-0.1,2.6
			c-0.2,0-0.5,0-0.8,0c-0.3,0-0.7,0-1.2,0h-1h-3.6l-0.1,1.5c0,0.4,0,0.8-0.1,1s0,0.5,0,0.7l0,0.3c0.4,0,0.8,0,1.1,0
			c0.3,0,0.6,0,0.9,0c1,0,2,0,2.9-0.1c0.9,0,1.7-0.1,2.4-0.2l-0.1,2.7H303z"/>
	</g>
</g>
</svg>
